<?xml version="1.0" standalone="no"?>
<!DOCTYPE svg PUBLIC "-//W3C//DTD SVG 20010904//EN"
 "http://www.w3.org/TR/2001/REC-SVG-20010904/DTD/svg10.dtd">
<svg version="1.0" xmlns="http://www.w3.org/2000/svg"
 width="764.000000pt" height="764.000000pt" viewBox="0 0 764.000000 764.000000"
 preserveAspectRatio="xMidYMid meet">
<metadata>
Created by potrace 1.11, written by Peter Selinger 2001-2013
</metadata>
<g transform="translate(0.000000,764.000000) scale(0.100000,-0.100000)"
fill="#000000" stroke="none">
<path d="M4667 6597 c-10 -6 -20 -26 -23 -42 -42 -232 -56 -327 -60 -415 -5
-96 -3 -109 18 -150 45 -87 119 -111 213 -66 47 22 155 117 155 137 0 5 5 9
10 9 6 0 9 -3 8 -7 -1 -5 1 -26 5 -48 19 -112 148 -146 290 -77 71 35 117 71
200 156 31 33 58 57 60 55 42 -58 87 -141 87 -161 0 -25 -27 -58 -48 -58 -21
0 -117 -49 -147 -75 -67 -57 -81 -72 -98 -100 -24 -41 -57 -114 -60 -136 -5
-31 -12 -31 -78 -1 -130 58 -394 138 -516 157 -21 3 -50 8 -63 11 -14 3 -52 7
-85 10 -33 3 -80 8 -105 10 -61 6 -335 6 -385 0 -22 -3 -62 -7 -90 -10 -48 -5
-113 -15 -145 -21 -116 -24 -179 -40 -250 -62 -47 -15 -89 -27 -95 -29 -74
-17 -330 -137 -452 -210 -71 -43 -241 -160 -253 -173 -3 -3 -34 -30 -70 -60
-116 -97 -241 -228 -364 -383 -32 -39 -162 -241 -184 -283 -20 -40 -21 -41
-77 -42 -46 -1 -54 1 -41 10 14 10 16 32 14 147 l-3 135 -90 0 -90 0 -3 -134
c-2 -82 1 -138 8 -146 8 -10 -2 -12 -47 -11 l-58 1 -5 205 -5 205 -170 0 -170
0 0 -203 c0 -111 -2 -203 -5 -203 -3 -1 -18 -2 -35 -3 l-30 -2 0 175 0 176
-100 0 -100 0 0 -176 0 -175 -52 1 c-29 0 -55 4 -59 8 -4 4 -2 7 4 7 7 0 11
11 10 23 -2 18 -7 23 -24 21 -13 -1 -27 -4 -31 -7 -5 -3 -15 -2 -23 3 -10 6
-13 33 -13 102 1 55 -4 99 -11 107 -8 12 -8 13 2 7 8 -5 12 -1 12 11 0 11 -6
25 -12 32 -11 10 -9 11 7 5 16 -6 18 -5 8 7 -16 16 -17 33 -2 23 8 -5 9 -2 1
12 -6 11 -7 27 -1 42 5 13 5 21 0 18 -5 -3 -12 1 -15 10 -9 24 -7 31 5 14 9
-13 10 -13 6 0 -3 13 -52 15 -346 17 -302 2 -342 1 -331 -12 9 -11 9 -15 1
-15 -7 0 -10 -13 -8 -35 3 -21 0 -35 -7 -35 -7 0 -7 -3 -1 -8 15 -10 19 -46 5
-37 -9 6 -9 2 -1 -12 12 -24 10 -63 -4 -63 -6 0 -7 -3 0 -8 15 -11 19 -46 4
-36 -8 5 -9 3 -3 -7 12 -19 11 -42 -1 -51 -6 -5 -5 -8 3 -8 10 0 10 -5 1 -21
-8 -15 -8 -19 0 -15 7 5 10 -1 8 -15 -4 -25 -39 -37 -77 -28 -11 3 -15 -4 -15
-26 l-1 -30 -74 -2 c-41 -1 -81 -2 -87 -2 -25 -2 -12 -26 32 -64 24 -21 45
-48 47 -60 4 -27 -32 -25 430 -26 l376 -1 -7 -27 c-4 -16 -13 -29 -19 -29 -7
-1 -22 -2 -35 -3 -22 -1 -46 -28 -52 -61 -6 -30 47 -62 120 -74 107 -17 225
-85 225 -130 0 -36 148 -274 199 -320 26 -24 26 -34 -1 -63 -19 -21 -21 -32
-19 -140 2 -117 3 -144 16 -258 8 -72 13 -125 20 -225 3 -41 10 -95 15 -120 5
-25 12 -72 15 -105 3 -33 8 -82 10 -110 3 -27 7 -90 10 -140 3 -49 8 -110 10
-135 2 -25 7 -79 11 -120 3 -41 8 -84 10 -94 2 -11 6 -42 9 -70 13 -109 64
-326 84 -354 27 -38 120 -66 215 -66 81 1 226 47 421 134 66 29 176 72 179 69
2 -2 29 -35 61 -74 77 -93 242 -256 335 -330 41 -33 77 -63 80 -66 18 -20 254
-165 349 -213 175 -89 434 -181 596 -211 202 -37 311 -47 495 -47 164 0 184 2
380 28 73 10 149 27 265 59 559 156 1033 501 1363 992 23 34 42 65 42 68 0 3
15 29 33 58 95 149 225 478 262 660 3 15 7 38 10 52 7 34 19 105 30 170 27
168 21 575 -11 705 -3 14 -8 41 -10 60 -5 40 -36 162 -66 265 -61 210 -191
476 -327 670 -48 68 -153 199 -163 203 -4 2 -8 8 -8 12 0 5 -27 34 -59 66
l-59 57 46 35 c26 19 48 39 50 43 2 4 18 27 36 51 88 116 107 300 43 437 -11
25 -24 48 -27 51 -3 3 -17 21 -30 40 -27 37 -60 74 -60 64 0 -3 -20 9 -44 26
-62 45 -147 53 -199 19 -52 -34 -84 -110 -86 -204 -1 -24 -6 -31 -22 -32 -22
-2 -91 -44 -84 -52 2 -2 -1 -13 -7 -25 -15 -26 -15 -27 -17 -76 -1 -28 -5 -40
-16 -40 -8 0 -15 7 -15 15 0 9 -6 12 -16 8 -10 -4 -17 2 -21 16 -3 14 -11 20
-20 17 -7 -3 -32 2 -54 12 -37 16 -40 19 -34 47 4 17 7 35 9 40 8 37 59 114
100 152 42 37 109 77 119 70 2 -1 23 15 47 36 24 20 47 37 51 37 14 0 31 61
25 91 -3 17 -21 56 -41 87 -19 32 -41 74 -50 94 l-15 38 45 45 c47 48 52 63
35 96 -32 58 -134 -39 -142 -135 -2 -21 -20 -44 -66 -85 -171 -151 -297 -202
-378 -152 -51 31 -50 56 4 97 60 46 139 120 158 149 35 54 17 149 -32 161 -78
20 -177 -69 -219 -196 -20 -59 -129 -180 -188 -209 -112 -54 -167 -3 -161 149
1 47 5 96 7 110 3 14 7 43 11 65 3 22 12 70 20 105 8 36 17 82 20 104 4 21 8
42 11 46 9 14 -7 40 -24 40 -10 0 -25 -6 -34 -13z m539 -291 c10 -40 -26 -89
-108 -151 -43 -31 -47 -24 -22 47 18 55 78 128 105 128 11 0 21 -9 25 -24z
m682 -501 c56 -30 107 -85 135 -145 12 -25 22 -48 23 -52 1 -5 3 -10 4 -13 1
-3 4 -14 5 -25 1 -11 3 -22 5 -25 2 -6 2 -74 0 -77 -1 -2 -3 -12 -5 -23 -17
-96 -64 -169 -149 -232 -37 -28 -35 -28 -68 2 -22 21 -26 30 -19 48 5 13 6 29
2 36 -5 7 -6 23 -4 35 3 15 -1 25 -11 29 -9 4 -16 1 -16 -5 0 -6 -3 -8 -7 -5
-13 14 -30 -14 -27 -45 4 -30 4 -31 -16 -13 -11 10 -20 24 -20 32 0 7 -9 13
-20 13 -11 0 -20 5 -20 10 0 6 -6 10 -14 10 -8 0 -16 6 -19 14 -4 11 17 13
113 12 l119 -1 0 65 c0 36 -2 80 -5 97 -8 43 -63 102 -97 105 -28 2 -30 5 -29
51 1 65 40 127 80 127 7 0 34 -11 60 -25z m-5542 -864 c-3 -5 17 -9 44 -9 28
-1 54 -3 59 -6 14 -9 42 5 35 16 -4 6 3 5 16 -2 12 -6 27 -9 35 -7 7 3 18 0
24 -6 8 -8 11 -7 11 4 1 10 5 8 17 -6 14 -17 15 -18 9 -2 -5 15 -2 17 13 12
11 -3 22 -1 26 5 4 6 13 7 23 1 23 -12 75 -11 83 2 4 5 10 0 13 -11 4 -11 13
-23 21 -26 12 -4 12 0 -2 22 -17 27 -17 27 2 12 11 -8 24 -19 28 -25 5 -6 7 0
4 13 -4 19 -3 21 8 12 8 -6 22 -11 32 -10 10 1 25 2 33 1 13 -1 13 -2 0 -11
-13 -9 -13 -10 0 -11 10 0 8 -3 -5 -9 -15 -6 -16 -9 -4 -9 9 -1 16 -8 16 -16
0 -9 -5 -14 -12 -12 -6 3 -11 -3 -11 -13 0 -10 4 -17 7 -14 4 2 10 0 14 -6 3
-5 -2 -10 -12 -11 -16 0 -16 -1 2 -9 11 -5 14 -9 6 -9 -10 -1 -11 -4 -2 -15
13 -15 -1 -32 -17 -22 -5 3 -9 -1 -9 -8 0 -7 8 -11 17 -9 12 3 16 -3 16 -21 0
-17 -6 -26 -15 -27 -14 0 -14 -1 -1 -7 8 -4 16 -15 16 -25 2 -14 -1 -15 -12
-6 -12 10 -13 9 -8 -5 3 -9 11 -16 18 -16 6 0 4 -5 -4 -10 -13 -9 -13 -11 0
-20 8 -5 13 -10 10 -11 -29 -5 -48 -4 -43 4 3 5 0 7 -8 5 -8 -3 -13 -11 -11
-18 2 -10 -1 -10 -10 -3 -7 5 -25 9 -40 8 -16 -1 -28 2 -28 7 0 4 -5 8 -11 8
-5 0 -8 -4 -5 -8 3 -5 -1 -9 -9 -9 -8 0 -15 4 -15 9 0 4 -5 8 -11 8 -5 0 -8
-4 -5 -8 3 -5 -1 -9 -9 -9 -8 0 -15 5 -15 11 0 6 -5 4 -10 -4 -9 -13 -10 -13
-10 0 0 13 -1 13 -10 0 -6 -10 -10 -11 -10 -2 0 6 -5 12 -11 12 -5 0 -8 -4 -5
-8 2 -4 -6 -8 -20 -8 -13 0 -24 5 -24 11 0 5 -5 3 -10 -5 -9 -13 -10 -13 -10
0 0 13 -1 13 -10 0 -6 -10 -10 -11 -10 -2 0 6 -5 12 -11 12 -5 0 -8 -3 -5 -8
2 -4 -13 -7 -35 -7 -31 0 -38 3 -34 15 3 10 0 9 -9 -3 -17 -22 -26 -23 -37 -5
-7 10 -9 10 -9 0 0 -7 -5 -10 -11 -7 -6 4 -8 14 -5 22 4 8 1 11 -5 8 -6 -4 -8
-13 -5 -21 3 -7 1 -16 -5 -19 -5 -4 -9 -3 -8 2 3 20 -2 25 -16 13 -12 -10 -13
-7 -5 19 7 26 6 31 -8 32 -12 0 -11 3 5 9 15 6 21 15 17 24 -3 9 -9 14 -12 13
-4 -1 -7 3 -7 8 0 6 3 9 7 8 5 -2 8 4 8 13 0 8 -4 13 -8 10 -4 -2 -8 17 -7 44
0 29 4 46 10 42 6 -3 4 2 -4 11 -8 11 -9 17 -3 17 13 0 4 31 -12 42 -7 5 -7 8
2 8 7 0 10 5 7 10 -3 6 -1 10 4 10 6 0 10 3 10 8 -2 12 1 22 7 22 3 0 3 -4 0
-9z m119 -9 c-3 -3 -11 0 -18 7 -9 10 -8 11 6 5 10 -3 15 -9 12 -12z m1005
-37 c0 17 93 12 107 -5 6 -8 15 -12 19 -7 4 4 2 7 -5 7 -7 0 -9 5 -6 10 5 8
12 7 23 -2 12 -10 14 -10 8 0 -8 13 19 13 42 -1 7 -5 12 -3 12 3 0 7 6 10 13
7 15 -5 17 -76 3 -96 -13 -17 -17 -43 -5 -35 5 3 7 9 4 14 -3 5 -1 11 5 15 13
8 13 -21 -1 -47 -7 -12 -7 -18 -1 -14 13 8 11 -103 -2 -123 -7 -10 -6 -12 3
-6 9 5 12 2 9 -11 -4 -21 -44 -27 -67 -10 -11 8 -13 8 -8 0 4 -7 -23 -10 -86
-10 l-92 1 0 40 c0 45 12 60 35 42 13 -10 13 -10 2 5 -8 10 -19 16 -24 15 -6
-1 -11 13 -12 31 -1 24 3 31 13 27 11 -4 11 -3 1 10 -7 8 -10 32 -8 55 2 22 1
40 -3 40 -3 0 -3 14 -1 31 3 22 7 27 13 18 5 -8 9 -9 9 -4z m-167 -80 c-2 -5
-7 -10 -12 -10 -5 0 -13 -4 -18 -9 -4 -5 -3 -7 2 -3 6 3 17 2 25 -4 13 -7 13
-9 0 -9 -12 0 -13 -2 -1 -9 7 -5 10 -14 6 -21 -6 -9 -9 -9 -15 0 -5 8 -9 7
-13 -4 -4 -9 -3 -15 1 -15 4 1 14 1 22 0 13 -1 13 -2 0 -11 -8 -5 -10 -10 -4
-10 7 0 11 -18 9 -47 l-2 -48 -71 -3 c-78 -2 -86 4 -71 60 4 15 3 30 -2 33 -5
4 -5 14 1 26 7 12 7 19 1 19 -7 0 -7 9 -1 25 6 15 6 26 -1 30 -5 4 -7 11 -4
16 8 12 151 7 148 -6z m646 -20 c6 -3 11 -1 11 5 0 6 5 8 10 5 6 -4 8 -10 5
-15 -3 -5 -1 -12 5 -15 6 -4 9 -1 8 6 -2 6 2 13 8 16 6 2 11 -11 12 -33 1 -28
-2 -35 -13 -30 -8 3 -15 2 -15 -2 0 -10 -100 -2 -101 9 -1 5 -1 18 -1 29 0 11
0 24 1 28 1 9 54 7 70 -3z m34 -137 c11 -12 13 -22 9 -54 -2 -9 -43 -34 -56
-34 -11 0 -46 40 -46 54 0 45 60 68 93 34z m-728 -99 c-9 -14 -32 -11 -38 5
-3 8 -3 17 0 20 9 9 44 -14 38 -25z m320 1 c3 -5 -1 -10 -10 -10 -9 0 -13 5
-10 10 3 6 8 10 10 10 2 0 7 -4 10 -10z m465 -184 c0 -16 -14 -36 -26 -36 -7
0 -46 -33 -86 -73 -40 -41 -85 -82 -101 -92 -43 -28 -69 -19 -313 101 -72 36
-142 67 -155 70 -112 27 -169 28 -154 4 8 -13 -11 -13 -36 1 -11 6 -45 12 -76
14 -30 2 -57 6 -61 9 -3 3 223 6 501 6 279 0 507 -2 507 -4z"/>
<path d="M623 4917 c-18 -22 -18 -22 2 -6 11 9 26 14 33 12 17 -6 15 4 -2 10
-8 3 -22 -4 -33 -16z"/>
<path d="M490 4918 c0 -6 3 -8 7 -5 3 4 13 1 22 -6 14 -11 14 -10 2 6 -15 20
-31 22 -31 5z"/>
<path d="M336 4901 c-3 -5 2 -15 12 -22 15 -12 16 -12 5 2 -7 9 -10 19 -6 22
3 4 4 7 0 7 -3 0 -8 -4 -11 -9z"/>
<path d="M836 4898 c5 -7 2 -9 -9 -5 -11 4 -14 2 -10 -9 4 -11 9 -12 19 -3 12
10 11 29 -2 29 -3 0 -2 -5 2 -12z"/>
<path d="M395 4890 c-3 -6 1 -7 9 -4 18 7 21 14 7 14 -6 0 -13 -4 -16 -10z"/>
<path d="M497 4889 c7 -7 15 -10 18 -7 3 3 -2 9 -12 12 -14 6 -15 5 -6 -5z"/>
<path d="M748 4893 c7 -3 16 -2 19 1 4 3 -2 6 -13 5 -11 0 -14 -3 -6 -6z"/>
<path d="M434 4876 c1 -8 5 -18 8 -22 4 -3 5 1 4 10 -1 8 -5 18 -8 22 -4 3 -5
-1 -4 -10z"/>
<path d="M465 4879 c-4 -6 -5 -12 -2 -15 2 -3 7 2 10 11 7 17 1 20 -8 4z"/>
<path d="M550 4879 c0 -15 18 -19 23 -6 3 8 -1 14 -9 14 -8 0 -14 -4 -14 -8z"/>
<path d="M606 4882 c-3 -5 1 -9 9 -9 8 0 12 4 9 9 -3 4 -7 8 -9 8 -2 0 -6 -4
-9 -8z"/>
<path d="M661 4881 c-10 -7 -7 -9 12 -8 14 1 23 5 20 10 -6 9 -15 9 -32 -2z"/>
<path d="M716 4882 c-3 -5 1 -9 9 -9 8 0 12 4 9 9 -3 4 -7 8 -9 8 -2 0 -6 -4
-9 -8z"/>
<path d="M791 4873 c7 -12 15 -20 18 -17 3 2 -3 12 -13 22 -17 16 -18 16 -5
-5z"/>
<path d="M476 4853 c-6 -14 -5 -15 5 -6 7 7 10 15 7 18 -3 3 -9 -2 -12 -12z"/>
<path d="M520 4851 c0 -6 4 -13 10 -16 6 -3 7 1 4 9 -7 18 -14 21 -14 7z"/>
<path d="M594 4849 c-3 -6 -1 -16 6 -22 10 -9 11 -9 5 2 -4 8 -2 17 6 22 9 6
10 9 2 9 -6 0 -15 -5 -19 -11z"/>
<path d="M635 4850 c-3 -5 -3 -10 2 -10 4 0 1 -5 -7 -11 -10 -7 -11 -9 -2 -7
8 2 13 7 12 12 -1 5 4 13 12 17 9 6 9 9 1 9 -6 0 -15 -4 -18 -10z"/>
<path d="M682 4844 c10 -10 20 -16 22 -13 3 3 -5 11 -17 18 -21 13 -21 12 -5
-5z"/>
<path d="M700 4856 c0 -2 7 -6 15 -10 8 -3 15 -1 15 4 0 6 -7 10 -15 10 -8 0
-15 -2 -15 -4z"/>
<path d="M780 4849 c0 -5 -4 -7 -10 -4 -5 3 -10 1 -10 -4 0 -6 5 -11 11 -11 5
0 7 -6 3 -12 -4 -7 -3 -10 1 -5 10 8 18 47 10 47 -3 0 -5 -5 -5 -11z"/>
<path d="M370 4838 c0 -4 4 -8 9 -8 6 0 12 4 15 8 3 5 -1 9 -9 9 -8 0 -15 -4
-15 -9z"/>
<path d="M418 4843 c6 -2 12 -9 12 -14 0 -6 -5 -7 -12 -3 -7 5 -8 3 -3 -5 5
-9 11 -9 17 -3 12 12 2 32 -15 31 -9 0 -9 -2 1 -6z"/>
<path d="M830 4840 c-9 -6 -10 -10 -3 -10 6 0 15 5 18 10 8 12 4 12 -15 0z"/>
<path d="M555 4831 c3 -5 0 -11 -7 -13 -7 -3 -5 -7 6 -11 9 -4 15 -3 11 2 -3
5 0 11 7 13 7 3 5 7 -6 11 -9 4 -15 3 -11 -2z"/>
<path d="M510 4821 c0 -10 29 -36 34 -30 1 2 -6 12 -16 22 -10 9 -18 13 -18 8z"/>
<path d="M655 4819 c-6 -8 -4 -10 5 -4 9 5 10 1 6 -16 -6 -21 -6 -22 5 -6 7
13 8 22 1 29 -6 6 -12 6 -17 -3z"/>
<path d="M481 4797 c-13 -21 -12 -21 5 -5 10 10 16 20 13 22 -3 3 -11 -5 -18
-17z"/>
<path d="M330 4806 c0 -2 7 -7 16 -10 8 -3 12 -2 9 4 -6 10 -25 14 -25 6z"/>
<path d="M384 4795 c-18 -14 -18 -14 4 -8 12 3 22 9 22 14 0 12 -3 11 -26 -6z"/>
<path d="M436 4794 c-11 -8 -16 -14 -10 -14 13 0 39 18 34 24 -3 2 -14 -2 -24
-10z"/>
<path d="M590 4796 c4 -4 16 -4 26 2 16 9 14 10 -8 9 -15 -1 -23 -6 -18 -11z"/>
<path d="M748 4792 c9 -10 19 -17 21 -16 6 5 -20 34 -30 34 -5 0 -1 -8 9 -18z"/>
<path d="M787 4804 c-4 -4 -7 -12 -7 -18 0 -6 5 -4 10 4 9 13 11 13 21 0 9
-12 10 -12 7 -1 -5 17 -21 25 -31 15z"/>
<path d="M710 4790 c8 -5 20 -10 25 -10 6 0 3 5 -5 10 -8 5 -19 10 -25 10 -5
0 -3 -5 5 -10z"/>
<path d="M496 4782 c-2 -4 -1 -14 3 -21 6 -9 11 -10 15 -2 4 6 2 11 -4 11 -6
0 -8 5 -5 10 3 6 4 10 1 10 -3 0 -7 -4 -10 -8z"/>
<path d="M615 4781 c-7 -12 12 -24 25 -16 6 3 10 12 9 18 0 9 -2 9 -6 0 -2 -7
-9 -13 -14 -13 -6 0 -7 5 -4 10 3 6 4 10 1 10 -3 0 -7 -4 -11 -9z"/>
<path d="M550 4776 c0 -3 14 -12 30 -21 17 -9 30 -13 30 -11 0 3 -13 12 -30
21 -16 9 -30 13 -30 11z"/>
<path d="M366 4762 c-3 -5 1 -9 9 -9 8 0 12 4 9 9 -3 4 -7 8 -9 8 -2 0 -6 -4
-9 -8z"/>
<path d="M414 4762 c4 -3 14 -7 22 -8 9 -1 13 0 10 4 -4 3 -14 7 -22 8 -9 1
-13 0 -10 -4z"/>
<path d="M653 4757 c-4 -6 -1 -7 7 -2 10 6 12 4 7 -8 -9 -23 0 -22 12 1 8 14
6 19 -5 19 -8 0 -18 -5 -21 -10z"/>
<path d="M716 4755 c-9 -26 -7 -32 5 -12 6 10 9 21 6 23 -2 3 -7 -2 -11 -11z"/>
<path d="M775 4760 c-3 -5 -1 -10 4 -10 6 0 11 5 11 10 0 6 -2 10 -4 10 -3 0
-8 -4 -11 -10z"/>
<path d="M396 4735 c-9 -26 -7 -32 5 -12 6 10 9 21 6 23 -2 3 -7 -2 -11 -11z"/>
<path d="M508 4728 c-10 -10 -14 -18 -9 -18 10 0 36 29 30 34 -2 1 -12 -6 -21
-16z"/>
<path d="M735 4741 c-9 -15 13 -23 32 -11 15 9 14 10 -6 4 -16 -4 -21 -3 -17
5 4 6 5 11 2 11 -3 0 -7 -4 -11 -9z"/>
<path d="M799 4748 c-5 -18 -6 -38 -1 -34 7 8 12 36 6 36 -2 0 -4 -1 -5 -2z"/>
<path d="M355 4730 c-3 -6 1 -7 9 -4 18 7 21 14 7 14 -6 0 -13 -4 -16 -10z"/>
<path d="M426 4721 c4 -17 3 -21 -6 -16 -9 6 -11 4 -5 -4 5 -9 11 -9 17 -3 7
7 6 16 -1 29 -11 16 -11 15 -5 -6z"/>
<path d="M470 4730 c-8 -5 -10 -10 -5 -10 6 0 17 5 25 10 8 5 11 10 5 10 -5 0
-17 -5 -25 -10z"/>
<path d="M542 4732 c2 -8 7 -13 12 -12 5 1 13 -4 18 -12 8 -11 9 -11 6 0 -2 8
-7 13 -12 12 -5 -1 -13 4 -18 12 -8 11 -9 11 -6 0z"/>
<path d="M820 4734 c0 -6 7 -19 16 -30 14 -18 14 -18 3 6 -14 31 -19 36 -19
24z"/>
<path d="M632 4714 c-7 -8 -8 -14 -3 -14 10 0 25 19 20 25 -2 1 -10 -3 -17
-11z"/>
<path d="M676 4714 c-11 -8 -16 -14 -10 -14 13 0 39 18 34 24 -3 2 -14 -2 -24
-10z"/>
<path d="M856 4718 c3 -5 10 -6 15 -3 13 9 11 12 -6 12 -8 0 -12 -4 -9 -9z"/>
<path d="M593 4705 c0 -8 4 -12 9 -9 5 3 6 10 3 15 -9 13 -12 11 -12 -6z"/>
<path d="M363 4695 c-3 -9 -3 -18 -1 -21 3 -3 8 4 11 16 6 23 -1 27 -10 5z"/>
<path d="M534 4702 c3 -5 1 -12 -4 -14 -6 -2 -12 -12 -14 -21 -1 -10 -9 -23
-17 -28 -8 -5 -9 -9 -3 -9 6 0 17 7 24 15 7 8 9 15 5 15 -5 0 0 9 9 19 13 14
14 21 5 27 -7 4 -10 3 -5 -4z"/>
<path d="M713 4695 c0 -8 4 -12 9 -9 4 3 8 9 8 15 0 5 -4 9 -8 9 -5 0 -9 -7
-9 -15z"/>
<path d="M760 4692 c0 -7 -5 -10 -12 -6 -7 4 -8 3 -4 -5 4 -6 12 -9 17 -6 5 4
9 1 9 -6 0 -7 3 -10 6 -6 3 3 1 14 -5 24 -6 11 -11 13 -11 5z"/>
<path d="M460 4680 c8 -5 22 -9 30 -9 10 0 8 3 -5 9 -27 12 -43 12 -25 0z"/>
<path d="M605 4680 c-3 -6 1 -7 9 -4 18 7 21 14 7 14 -6 0 -13 -4 -16 -10z"/>
<path d="M656 4678 c3 -5 10 -6 15 -3 13 9 11 12 -6 12 -8 0 -12 -4 -9 -9z"/>
<path d="M795 4680 c-2 -3 5 -7 16 -7 10 -1 19 2 19 6 0 9 -29 10 -35 1z"/>
<path d="M437 4669 c7 -7 15 -10 18 -7 3 3 -2 9 -12 12 -14 6 -15 5 -6 -5z"/>
<path d="M615 4661 c-7 -12 12 -24 25 -16 6 3 10 12 9 18 0 9 -2 9 -6 0 -2 -7
-9 -13 -14 -13 -6 0 -7 5 -4 10 3 6 4 10 1 10 -3 0 -7 -4 -11 -9z"/>
<path d="M710 4661 c0 -6 4 -12 8 -15 5 -3 9 1 9 9 0 8 -4 15 -9 15 -4 0 -8
-4 -8 -9z"/>
<path d="M355 4650 c-3 -6 1 -7 9 -4 18 7 21 14 7 14 -6 0 -13 -4 -16 -10z"/>
<path d="M403 4642 c10 -10 14 -22 10 -27 -5 -4 -2 -5 4 -1 10 5 10 11 0 26
-6 11 -16 20 -21 20 -5 0 -2 -8 7 -18z"/>
<path d="M550 4650 c-9 -6 -10 -10 -3 -10 6 0 15 5 18 10 8 12 4 12 -15 0z"/>
<path d="M660 4654 c0 -13 18 -39 24 -34 2 3 -2 14 -10 24 -8 11 -14 16 -14
10z"/>
<path d="M593 4638 c3 -9 1 -19 -6 -22 -9 -3 -9 -5 0 -5 18 -1 23 13 11 29 -8
12 -9 12 -5 -2z"/>
<path d="M757 4635 c-6 -15 10 -32 20 -21 4 3 1 6 -5 6 -6 0 -9 7 -6 15 4 8 4
15 1 15 -3 0 -7 -7 -10 -15z"/>
<path d="M477 4619 c7 -7 15 -10 18 -7 3 3 -2 9 -12 12 -14 6 -15 5 -6 -5z"/>
<path d="M1626 4885 c-11 -8 -15 -15 -9 -15 6 0 16 7 23 15 16 19 11 19 -14 0z"/>
<path d="M1476 4873 c-6 -14 -5 -15 5 -6 7 7 10 15 7 18 -3 3 -9 -2 -12 -12z"/>
<path d="M1551 4877 c-1 -11 -6 -15 -13 -11 -7 5 -8 3 -3 -5 10 -16 29 2 22
21 -4 8 -6 7 -6 -5z"/>
<path d="M1674 4872 c3 -5 0 -13 -6 -15 -9 -4 -10 -6 -1 -6 17 -1 25 16 12 25
-7 4 -9 3 -5 -4z"/>
<path d="M1597 4859 c7 -7 15 -10 18 -7 3 3 -2 9 -12 12 -14 6 -15 5 -6 -5z"/>
<path d="M1510 4851 c0 -5 7 -12 16 -15 14 -5 15 -4 4 9 -14 17 -20 19 -20 6z"/>
<path d="M1630 4856 c0 -2 8 -10 18 -17 15 -13 16 -12 3 4 -13 16 -21 21 -21
13z"/>
<path d="M1570 4846 c0 -2 7 -7 16 -10 8 -3 12 -2 9 4 -6 10 -25 14 -25 6z"/>
<path d="M1557 4829 c7 -7 15 -10 18 -7 3 3 -2 9 -12 12 -14 6 -15 5 -6 -5z"/>
<path d="M1520 4810 c6 -11 13 -20 16 -20 2 0 0 9 -6 20 -6 11 -13 20 -16 20
-2 0 0 -9 6 -20z"/>
<path d="M1642 4800 c7 -10 14 -18 15 -16 6 6 -9 36 -18 36 -5 0 -4 -9 3 -20z"/>
<path d="M1480 4795 c-19 -22 -8 -25 13 -3 9 10 13 18 8 18 -5 0 -14 -7 -21
-15z"/>
<path d="M1566 4798 c3 -5 10 -6 15 -3 13 9 11 12 -6 12 -8 0 -12 -4 -9 -9z"/>
<path d="M1595 4789 c-4 -6 -4 -13 -1 -16 3 -4 6 -1 6 5 0 7 5 12 11 12 5 0 7
-5 3 -12 -4 -7 -3 -8 5 -4 12 8 6 26 -9 26 -5 0 -12 -5 -15 -11z"/>
<path d="M1494 4779 c-4 -7 -3 -9 4 -5 5 3 13 0 15 -6 4 -9 6 -10 6 -1 1 17
-16 25 -25 12z"/>
<path d="M1624 4758 c-4 -6 -3 -8 4 -4 5 3 13 0 15 -6 3 -8 6 -6 6 5 1 19 -14
23 -25 5z"/>
<path d="M1593 4745 c0 -8 4 -15 9 -15 4 0 8 4 8 9 0 6 -4 12 -8 15 -5 3 -9
-1 -9 -9z"/>
<path d="M1510 4745 c0 -5 5 -17 10 -25 5 -8 10 -10 10 -5 0 6 -5 17 -10 25
-5 8 -10 11 -10 5z"/>
<path d="M1490 4729 c0 -5 -4 -8 -8 -5 -5 3 -9 -1 -9 -9 0 -18 24 -28 33 -13
5 7 2 8 -6 3 -9 -5 -10 -2 -5 14 3 11 4 21 1 21 -3 0 -6 -5 -6 -11z"/>
<path d="M1556 4726 c10 -8 21 -12 24 -10 5 6 -21 24 -34 24 -6 0 -1 -6 10
-14z"/>
<path d="M1615 4711 c-3 -5 0 -13 6 -17 8 -5 9 -3 4 6 -6 9 -1 10 16 5 19 -5
21 -4 9 4 -19 13 -27 14 -35 2z"/>
<path d="M1535 4699 c-5 -8 -4 -10 3 -5 7 4 12 3 12 -3 0 -5 -6 -12 -12 -14
-10 -4 -10 -6 -1 -6 17 -1 27 19 15 31 -6 6 -12 6 -17 -3z"/>
<path d="M1593 4692 c0 -12 5 -22 9 -22 11 0 10 12 -2 30 -7 12 -9 10 -7 -8z"/>
<path d="M1646 4682 c-3 -5 1 -9 9 -9 8 0 15 4 15 9 0 4 -4 8 -9 8 -6 0 -12
-4 -15 -8z"/>
<path d="M1510 4660 c8 -5 20 -10 25 -10 6 0 3 5 -5 10 -8 5 -19 10 -25 10 -5
0 -3 -5 5 -10z"/>
<path d="M1555 4661 c-3 -5 -2 -12 3 -15 5 -3 9 1 9 9 0 17 -3 19 -12 6z"/>
<path d="M1580 4653 c0 -7 5 -15 10 -18 6 -4 8 -11 5 -16 -4 -5 -1 -9 4 -9 15
0 13 11 -4 34 -8 11 -15 15 -15 9z"/>
<path d="M1630 4650 c-8 -5 -12 -11 -10 -14 3 -2 14 2 24 10 22 15 10 19 -14
4z"/>
<path d="M1485 4640 c-3 -6 1 -7 9 -4 18 7 21 14 7 14 -6 0 -13 -4 -16 -10z"/>
<path d="M1496 4622 c-2 -4 -1 -14 3 -21 6 -9 11 -10 15 -2 4 6 2 11 -4 11 -6
0 -8 5 -5 10 3 6 4 10 1 10 -3 0 -7 -4 -10 -8z"/>
<path d="M1645 4619 c-4 -6 -4 -13 -1 -16 3 -4 6 -1 6 6 0 7 5 9 12 5 7 -4 8
-3 4 4 -9 15 -13 15 -21 1z"/>
<path d="M1553 4605 c0 -7 6 -11 14 -8 7 3 13 6 13 8 0 2 -6 5 -13 8 -8 3 -14
-1 -14 -8z"/>
<path d="M1212 4785 c4 -4 0 -14 -10 -21 -9 -7 -12 -14 -6 -14 6 0 17 6 23 14
9 11 9 16 -1 22 -7 4 -10 4 -6 -1z"/>
<path d="M1247 4759 c7 -7 15 -10 18 -7 3 3 -2 9 -12 12 -14 6 -15 5 -6 -5z"/>
<path d="M1215 4741 c-9 -15 13 -23 32 -11 15 9 14 10 -6 4 -16 -4 -21 -3 -17
5 4 6 5 11 2 11 -3 0 -7 -4 -11 -9z"/>
<path d="M1164 4719 c-4 -7 -3 -9 4 -5 5 3 13 0 15 -6 4 -9 6 -10 6 -1 1 17
-16 25 -25 12z"/>
<path d="M1196 4693 c-6 -14 -5 -15 5 -6 7 7 10 15 7 18 -3 3 -9 -2 -12 -12z"/>
<path d="M1240 4692 c0 -7 -5 -10 -12 -6 -7 4 -8 3 -4 -5 4 -6 12 -9 17 -6 5
4 9 1 9 -6 0 -7 3 -10 6 -6 3 3 1 14 -5 24 -6 11 -11 13 -11 5z"/>
<path d="M1278 4673 c7 -3 16 -2 19 1 4 3 -2 6 -13 5 -11 0 -14 -3 -6 -6z"/>
<path d="M1215 4660 c6 -10 1 -12 -18 -8 -15 3 -24 1 -21 -3 7 -12 41 -11 49
0 3 5 0 13 -6 17 -8 5 -9 3 -4 -6z"/>
<path d="M1913 4771 c15 -10 25 -21 22 -24 -3 -4 -2 -5 2 -2 15 11 11 34 -5
28 -8 -4 -13 -2 -9 3 3 6 -4 11 -16 11 -19 2 -18 0 6 -16z"/>
<path d="M1890 4761 c0 -6 4 -13 10 -16 6 -3 7 1 4 9 -7 18 -14 21 -14 7z"/>
<path d="M1926 4635 c-6 -17 17 -31 34 -20 8 5 8 11 -1 21 -15 18 -25 18 -33
-1z"/>
<path d="M2758 6583 c-22 -25 -30 -57 -34 -127 -8 -156 -14 -260 -18 -294 -3
-20 -8 -68 -12 -107 -3 -38 -8 -79 -10 -90 -17 -90 -16 -113 4 -124 31 -17 43
-7 91 75 90 156 238 310 262 273 5 -8 9 -23 10 -34 4 -89 29 -173 56 -195 48
-38 147 -16 243 55 l50 37 -6 -30 c-7 -34 11 -98 34 -124 35 -41 134 -2 222
86 l55 55 19 -30 c39 -62 110 -75 192 -34 45 22 71 43 146 113 l27 25 -4 -78
c-2 -42 -6 -79 -8 -82 -6 -6 12 -75 23 -87 14 -15 70 4 70 24 0 30 49 149 84
204 57 90 109 123 205 135 58 6 69 16 48 45 -21 29 -94 32 -147 7 -77 -37
-126 -91 -180 -197 -26 -53 -30 -56 -30 -29 0 17 9 66 19 111 22 97 22 133 -1
148 -25 16 -48 -11 -55 -65 -5 -38 -15 -53 -71 -106 -70 -67 -149 -113 -194
-113 -17 0 -39 10 -53 25 -32 31 -35 74 -11 170 21 85 -9 125 -92 125 -46 0
-124 -44 -172 -96 -158 -171 -232 -224 -317 -227 -41 -2 -49 1 -59 23 -7 14
-15 48 -18 75 -13 105 -16 119 -31 142 -18 27 -33 28 -78 9 -47 -19 -199 -174
-216 -219 -2 -6 -13 -20 -23 -32 -19 -20 -19 -19 -13 60 3 44 8 91 11 105 2
14 6 59 9 100 5 77 13 154 19 180 16 81 18 113 5 121 -21 13 -34 11 -51 -8z
m956 -326 c25 -103 -91 -271 -203 -293 -102 -21 -22 206 101 288 52 35 94 37
102 5z"/>
<path d="M2325 6557 c-228 -87 -403 -340 -381 -548 6 -59 45 -122 88 -146 56
-30 176 -24 270 14 184 73 417 271 378 319 -10 11 -23 4 -73 -41 -119 -108
-279 -206 -382 -234 -85 -23 -161 -6 -186 42 -25 45 -19 147 12 223 7 16 13
31 14 34 8 33 59 105 109 155 93 92 221 152 279 129 17 -6 19 -2 -40 -71 -17
-21 -19 -30 -10 -49 18 -42 74 -22 101 36 4 8 13 26 20 38 16 28 12 49 -18 86
-31 40 -99 44 -181 13z"/>
</g>
</svg>
